<svg xmlns="http://www.w3.org/2000/svg" fill="none" viewBox="0 0.5 20 23"><path d="M13.177 19.29c-.765 0-1.412-.27-1.942-.81a2.694 2.694 0 0 1-.794-1.955c0-.782.265-1.443.794-1.984a2.611 2.611 0 0 1 1.942-.812c.745 0 1.382.27 1.911.812.53.54.794 1.202.794 1.984 0 .762-.264 1.413-.794 1.954a2.578 2.578 0 0 1-1.911.812ZM2.117 23.5a2.02 2.02 0 0 1-1.5-.631A2.111 2.111 0 0 1 0 21.335V5.22c0-.601.206-1.112.618-1.533a2.02 2.02 0 0 1 1.5-.631h1.647V1.432a.94.94 0 0 1 .25-.661A.826.826 0 0 1 4.646.5c.275 0 .495.09.661.27.167.181.25.401.25.662v1.624h8.913V1.402c0-.24.088-.451.264-.631A.838.838 0 0 1 15.353.5c.255 0 .465.09.632.27a.9.9 0 0 1 .25.632v1.654h1.647c.589 0 1.089.21 1.5.63.412.422.618.933.618 1.534v16.115c0 .602-.206 1.113-.618 1.534a2.02 2.02 0 0 1-1.5.631H2.118Zm0-1.804h15.765a.355.355 0 0 0 .353-.36V10.03H1.765v11.304c0 .1.034.186.103.256.068.07.152.105.25.105Zm-.352-13.47h16.47V5.22a.35.35 0 0 0-.102-.255.337.337 0 0 0-.25-.106H2.117a.334.334 0 0 0-.25.106.349.349 0 0 0-.103.255v3.007Z" fill="#1DA1F2"/></svg>